<svg xmlns="http://www.w3.org/2000/svg" xmlns:xlink="http://www.w3.org/1999/xlink" width="20" height="16" viewBox="0 0 20 16" fill="none"><g opacity="1" transform="translate(0 0)  rotate(0 10 8)"><path id="Path" fill-rule="evenodd" style="fill:#1A110F" transform="translate(-0.000004356319618821773 0.0263024390243905)  rotate(0 10.00000217815981 7.97369756097561)" opacity="1" d="M7.53,15.64C7.74,15.84 8.01,15.95 8.3,15.95C8.6,15.95 8.87,15.84 9.08,15.64L9.73,15.01C9.94,14.82 10.05,14.55 10.05,14.27C10.05,13.99 9.94,13.74 9.73,13.54L5.48,9.47L18.89,9.47C19.49,9.47 20,8.97 20,8.39L20,7.51C20,6.93 19.48,6.47 18.88,6.47L18.91,6.47L5.52,6.47L9.73,2.43C9.94,2.23 10.05,1.96 10.05,1.68C10.05,1.4 9.94,1.13 9.73,0.94L9.08,0.31C8.87,0.11 8.6,0 8.3,0C8.01,0 7.74,0.11 7.53,0.31L0.32,7.23C0.11,7.43 0,7.69 0,7.97C0,8.26 0.11,8.52 0.32,8.72L7.53,15.64Z " /></g></svg>